{"title":"The.Tall.Man.2012.DVDRIP.x264-juggs","uid":8103761,"size":861439518,"categoryP":"video","categoryS":"movies","magnet":"?xt=urn:btih:71d0d00f95dfd284827f4bb6a7852b289cc18df2&amp;dn=The.Tall.Man.2012.DVDRIP.x264-juggs&amp;tr=udp%3A%2F%2Ftracker.openbittorrent.com%3A80&amp;tr=udp%3A%2F%2Fopen.demonii.com%3A1337&amp;tr=udp%3A%2F%2Ftracker.coppersurfer.tk%3A6969&amp;tr=udp%3A%2F%2Fexodus.desync.com%3A6969","seeders":2,"leechers":1,"uploader":"juggs99","files":2,"time":1360030498,"description":"Source : DVDR-VIAZAC\n\n\nFormat : MPEG-4\nFormat profile : Base Media / Version 2\nCodec ID : mp42\nFile size : 822 MiB\nDuration : 1h 41mn\nOverall bit rate mode : Variable\nOverall bit rate : 1 132 Kbps\n\n\nVideo\nID : 1\nFormat : AVC\nFormat/Info : Advanced Video Codec\nFormat profile : &lt;a class=&quot;__cf_email__&quot; href=&quot;/cdn-cgi/l/email-protection&quot; data-cfemail=&quot;024f636b6c424e312c32&quot;&gt;[email&amp;#160;protected]&lt;/a&gt;&lt;script cf-hash='f9e31' type=&quot;text/javascript&quot;&gt;\n/* &lt;![CDATA[ */!function(){try{var t=&quot;currentScript&quot;in document?document.currentScript:function(){for(var t=document.getElementsByTagName(&quot;script&quot;),e=t.length;e--;)if(t[e].getAttribute(&quot;cf-hash&quot;))return t[e]}();if(t&amp;&amp;t.previousSibling){var e,r,n,i,c=t.previousSibling,a=c.getAttribute(&quot;data-cfemail&quot;);if(a){for(e=&quot;&quot;,r=parseInt(a.substr(0,2),16),n=2;a.length-n;n+=2)i=parseInt(a.substr(n,2),16)^r,e+=String.fromCharCode(i);e=document.createTextNode(e),c.parentNode.replaceChild(e,c)}}}catch(u){}}();/* ]]&gt; */&lt;/script&gt;\nFormat settings, CABAC : Yes\nFormat settings, ReFrames : 4 frames\nCodec ID : avc1\nCodec ID/Info : Advanced Video Coding\nDuration : 1h 41mn\nBit rate mode : Variable\nBit rate : 1 000 Kbps\nWidth : 640 pixels\nHeight : 464 pixels\nDisplay aspect ratio : 2.40:1\nFrame rate mode : Constant\nFrame rate : 25.000 fps\nColor space : YUV\nChroma subsampling : 4:2:0\nBit depth : 8 bits\nScan type : Progressive\nBits/(Pixel*Frame) : 0.135\nStream size : 726 MiB (88%)\nWriting library : x264 core 120\n\n\n\nAudio\nID : 2\nFormat : AAC\nFormat/Info : Advanced Audio Codec\nFormat profile : LC\nCodec ID : 40\nDuration : 1h 41mn\nBit rate mode : Variable\nBit rate : 128 Kbps\nMaximum bit rate : 175 Kbps\nChannel(s) : 2 channels\nChannel positions : Front: L R\nSampling rate : 48.0 KHz\nCompression mode : Lossy\nDelay relative to video : 80ms\nStream size : 92.9 MiB (11%)\nLanguage : English\n\n\n\n &lt;a href=&quot;\nhttp://www.shotpix.com/images/78840346682065604998.png&quot; rel=&quot;nofollow&quot; target=&quot;_NEW&quot;&gt;\nhttp://www.shotpix.com/images/78840346682065604998.png&lt;/a&gt; &lt;a href=&quot;\nhttp://www.shotpix.com/images/42492358054113649266.png&quot; rel=&quot;nofollow&quot; target=&quot;_NEW&quot;&gt;\nhttp://www.shotpix.com/images/42492358054113649266.png&lt;/a&gt; &lt;a href=&quot;\nhttp://www.shotpix.com/images/19821911734061845752.png&quot; rel=&quot;nofollow&quot; target=&quot;_NEW&quot;&gt;\nhttp://www.shotpix.com/images/19821911734061845752.png&lt;/a&gt; &lt;a href=&quot;\nhttp://www.shotpix.com/images/38208207450508200505.png&quot; rel=&quot;nofollow&quot; target=&quot;_NEW&quot;&gt;\nhttp://www.shotpix.com/images/38208207450508200505.png&lt;/a&gt;","torrent":{"xt":"urn:btih:71d0d00f95dfd284827f4bb6a7852b289cc18df2","amp;dn":"The.Tall.Man.2012.DVDRIP.x264-juggs","amp;tr":["udp%3A%2F%2Ftracker.openbittorrent.com%3A80","udp%3A%2F%2Fopen.demonii.com%3A1337","udp%3A%2F%2Ftracker.coppersurfer.tk%3A6969","udp%3A%2F%2Fexodus.desync.com%3A6969"],"infoHash":"71d0d00f95dfd284827f4bb6a7852b289cc18df2","infoHashBuffer":{"type":"Buffer","data":[113,208,208,15,149,223,210,132,130,127,75,182,167,133,43,40,156,193,141,242]},"announce":[],"urlList":[]}}